<?xml version="1.0" encoding="iso-8859-1"?>
<!-- Uploaded to: SVG Repo, www.svgrepo.com, Generator: SVG Repo Mixer Tools -->
<!DOCTYPE svg PUBLIC "-//W3C//DTD SVG 1.1//EN" "http://www.w3.org/Graphics/SVG/1.1/DTD/svg11.dtd">
<svg fill="#000000" version="1.1" id="Capa_1" xmlns="http://www.w3.org/2000/svg" xmlns:xlink="http://www.w3.org/1999/xlink" 
	 width="800px" height="800px" viewBox="0 0 331.794 331.794"
	 xml:space="preserve">
<g>
	<path d="M32.194,215.479c1.767,0,3.515-0.143,5.239-0.427v39.013c0,4.482,3.628,8.1,8.1,8.1h48.524c0.037,0,0.082,0,0.108,0
		c4.478,0,8.1-3.617,8.1-8.1c0-1.856-0.627-3.57-1.685-4.946c-1.17-2.289-1.767-4.673-1.767-7.104
		c0-8.817,7.177-15.994,15.995-15.994c8.825,0,16.002,7.177,16.002,15.994c0,2.736-0.757,5.416-2.241,7.968
		c-1.464,2.511-1.469,5.601-0.029,8.121c1.447,2.511,4.126,4.061,7.027,4.061h45.47c1.208,0.718,2.6,1.155,4.108,1.155h48.521
		c0.031,0,0.079,0.005,0.105,0c4.478,0,8.1-3.623,8.1-8.101c0-1.861-0.622-3.575-1.677-4.94c-1.171-2.3-1.771-4.684-1.771-7.109
		c0-8.816,7.183-15.994,15.999-15.994c8.817,0,15.995,7.178,15.995,15.994c0,2.742-0.755,5.422-2.241,7.974
		c-1.456,2.511-1.467,5.601-0.017,8.11c1.445,2.516,4.119,4.066,7.02,4.066h48.516c4.472,0,8.1-3.623,8.1-8.101v-48.521
		c0-2.9-1.55-5.579-4.061-7.02c-2.521-1.449-5.61-1.439-8.11,0.021c-2.558,1.482-5.242,2.241-7.979,2.241
		c-8.817,0-15.994-7.177-15.994-15.994c0-8.822,7.177-15.994,15.994-15.994c2.736,0,5.421,0.754,7.979,2.241
		c2.5,1.461,5.59,1.471,8.11,0.021c2.511-1.45,4.061-4.118,4.061-7.021v-48.523c0-4.477-3.628-8.1-8.1-8.1h-37.8
		c0.475-2.196,0.722-4.454,0.722-6.745c0-17.756-14.443-32.194-32.194-32.194c-17.75,0-32.199,14.444-32.199,32.194
		c0,2.292,0.242,4.549,0.728,6.745h-34.752c-1.213-0.718-2.604-1.155-4.113-1.155H146.28c0.488-2.199,0.73-4.456,0.73-6.75
		c0-17.756-14.447-32.194-32.202-32.194c-17.748,0-32.194,14.438-32.194,32.194c0,2.289,0.243,4.546,0.725,6.75H45.533
		c-4.472,0-8.1,3.623-8.1,8.1v36.001c-1.719-0.282-3.473-0.427-5.239-0.427C14.444,151.091,0,165.535,0,183.285
		C0,201.035,14.444,215.479,32.194,215.479z M193.24,124.766h42.329c3.106,0,5.943-1.777,7.294-4.569
		c1.35-2.79,0.991-6.112-0.939-8.548c-1.598-2.025-3.501-5.371-3.501-9.822c0-8.817,7.183-15.994,15.999-15.994
		c8.817,0,15.995,7.177,15.995,15.994c0,4.456-1.904,7.797-3.502,9.822c-1.925,2.436-2.289,5.758-0.934,8.548
		c1.351,2.798,4.177,4.569,7.288,4.569h42.335v29.241c-1.312-0.166-2.631-0.253-3.949-0.253c-17.751,0-32.194,14.438-32.194,32.194
		s14.443,32.194,32.194,32.194c1.318,0,2.637-0.084,3.949-0.253v29.235h-29.246c0.179-1.312,0.264-2.631,0.264-3.944
		c0-17.761-14.449-32.199-32.2-32.199c-17.745,0-32.188,14.449-32.188,32.199c0,1.313,0.084,2.632,0.258,3.944H193.25v-42.63
		c0-2.985-1.645-5.732-4.276-7.141c-2.632-1.402-5.827-1.25-8.316,0.401c-2.631,1.761-5.695,2.689-8.849,2.689
		c-5.435,0-10.23-2.742-13.125-6.898c-1.656-2.51-2.634-5.521-2.634-8.748c0-8.822,7.178-15.994,16.002-15.994
		c2.737,0,5.411,0.754,7.969,2.235c0.696,0.411,1.439,0.675,2.204,0.854c2.178,0.854,4.636,0.77,6.75-0.358
		c2.632-1.413,4.276-4.155,4.276-7.141v-39.63H193.24z M32.194,167.291c3.153,0,6.209,0.928,8.846,2.684
		c2.484,1.667,5.685,1.814,8.316,0.401c2.629-1.403,4.277-4.155,4.277-7.141v-39.619h42.33c3.106,0,5.935-1.777,7.291-4.569
		c1.355-2.792,0.994-6.112-0.931-8.548c-1.604-2.025-3.504-5.379-3.504-9.827c0-8.82,7.177-15.995,15.995-15.995
		c8.825,0,16.002,7.175,16.002,15.995c0,4.443-1.912,7.802-3.504,9.833c-1.925,2.437-2.286,5.756-0.931,8.548
		c1.355,2.792,4.184,4.564,7.29,4.564h42.325v28.97c-1.388-0.182-2.774-0.34-4.188-0.34c-17.748,0-32.191,14.45-32.191,32.2
		c0,6.734,2.091,12.988,5.637,18.162c5.777,8.658,15.628,14.38,26.797,14.38c1.318,0,2.637-0.089,3.945-0.258v29.246H146.76
		c0.174-1.313,0.261-2.632,0.261-3.95c0-17.755-14.446-32.193-32.199-32.193c-17.75,0-32.197,14.438-32.197,32.193
		c0,1.318,0.087,2.637,0.261,3.95H53.644v-42.63c0-2.99-1.648-5.738-4.277-7.151c-2.626-1.402-5.827-1.25-8.316,0.411
		c-2.631,1.751-5.692,2.68-8.846,2.68c-8.817,0-15.995-7.172-15.995-15.995C16.21,174.473,23.377,167.291,32.194,167.291z"/>
</g>
</svg>